/* XPM */
static char * v6_xpm[] = {
"20 20 11 1",
" 	c #002B36",
".	c #1A4151",
"+	c #6381A6",
"@	c #1A4251",
"#	c #6785AA",
"$	c #A9BEF6",
"%	c #AABFF4",
"&	c #6180A3",
"*	c #133B4A",
"=	c #567696",
"-	c #123B4A",
"                    ",
"                    ",
"                    ",
"                    ",
"                    ",
"                    ",
"                    ",
"                    ",
"                    ",
"                    ",
"                    ",
"                    ",
"                    ",
"                    ",
"        .++@        ",
"        #$%#        ",
"        &$$&        ",
"        *==-        ",
"                    ",
"                    "};
