/* XPM */
static char * v5_xpm[] = {
"20 20 28 1",
" 	c #002B36",
".	c #052F3B",
"+	c #093341",
"@	c #0A3341",
"#	c #40637D",
"$	c #819CC7",
"%	c #A2B8EE",
"&	c #A4BAEE",
"*	c #3F627D",
"=	c #012C37",
"-	c #5E7D9F",
";	c #A9BEF6",
">	c #07313E",
",	c #7792BB",
"'	c #2E5469",
")	c #2F5469",
"!	c #829CC8",
"~	c #1F4657",
"{	c #4B6C88",
"]	c #1A4151",
"^	c #6381A6",
"/	c #1A4251",
"(	c #6785AA",
"_	c #AABFF4",
":	c #6180A3",
"<	c #133B4A",
"[	c #567696",
"}	c #123B4A",
"                    ",
"                    ",
"                    ",
"                    ",
"                    ",
"                    ",
"                    ",
"                    ",
"                    ",
"                    ",
"        .+@.        ",
"       #$%&$*       ",
"  =  =-;;;;;;-=     ",
"     >$;,'),;!>     ",
"      ~{]^^/{~      ",
"        (;_(        ",
"        :;;:        ",
"        <[[}        ",
"                    ",
"                    "};
