/* XPM */
static char * v4_xpm[] = {
"20 20 59 1",
" 	c #002B36",
".	c #08323E",
"+	c #173F4F",
"@	c #1C4456",
"#	c #103946",
"$	c #466885",
"%	c #718DB3",
"&	c #89A2D0",
"*	c #94ACDF",
"=	c #94ACDE",
"-	c #385C74",
";	c #8BA5D3",
">	c #A6BCF1",
",	c #A9BEF6",
"'	c #ABC0F6",
")	c #A7BCF1",
"!	c #375B74",
"~	c #012C37",
"{	c #496B88",
"]	c #A1B7EB",
"^	c #8DA6D4",
"/	c #51718E",
"(	c #36596C",
"_	c #375A6C",
":	c #53738F",
"<	c #8BA4D4",
"[	c #A8BDF5",
"}	c #A0B6EB",
"|	c #829CC8",
"1	c #9CB3E8",
"2	c #40637E",
"3	c #052F3B",
"4	c #093341",
"5	c #0A3341",
"6	c #32576E",
"7	c #7D98C3",
"8	c #284D61",
"9	c #40637D",
"0	c #819CC7",
"a	c #A2B8EE",
"b	c #A4BAEE",
"c	c #3F627D",
"d	c #7B96C2",
"e	c #5E7D9F",
"f	c #07313E",
"g	c #7792BB",
"h	c #2E5469",
"i	c #2F5469",
"j	c #1F4657",
"k	c #4B6C88",
"l	c #1A4151",
"m	c #6381A6",
"n	c #1A4251",
"o	c #6785AA",
"p	c #AABFF4",
"q	c #6180A3",
"r	c #133B4A",
"s	c #567696",
"t	c #123B4A",
"                    ",
"                    ",
"                    ",
"                    ",
"                    ",
"                    ",
"       .+@@+.       ",
"     #$%&*=&%$#     ",
"    -;>,,,'',);!    ",
" ~ {],'^/(_:<'[}{   ",
"  ~|,12 3453 21,|~  ",
"   678 90ab0c 8d6   ",
"  ~  ~e,,,,,,e~  ~  ",
"     f0,ghig,|f     ",
"      jklmmnkj      ",
"        o,po        ",
"        q,,q        ",
"        rsst        ",
"                    ",
"                    "};
