/* XPM */
static char * v3_xpm[] = {
"20 20 94 2",
"  	c #002B36",
". 	c #022D38",
"+ 	c #0D3642",
"@ 	c #2E5369",
"# 	c #486A87",
"$ 	c #597899",
"% 	c #6381A4",
"& 	c #6381A3",
"* 	c #0C3542",
"= 	c #123A48",
"- 	c #5B7A9C",
"; 	c #89A2D0",
"> 	c #9AB1E3",
", 	c #A6BCF3",
"' 	c #A9BEF6",
") 	c #5A799C",
"! 	c #113A48",
"~ 	c #42657F",
"{ 	c #97AEE2",
"] 	c #9AB1E5",
"^ 	c #89A2D1",
"/ 	c #41647F",
"( 	c #09323F",
"_ 	c #607EA0",
": 	c #A4BAEE",
"< 	c #89A2D2",
"[ 	c #44667F",
"} 	c #0E3742",
"| 	c #8BA4D2",
"1 	c #A3B9EF",
"2 	c #5E7D9F",
"3 	c #08323F",
"4 	c #6886AB",
"5 	c #A8BDF5",
"6 	c #395D75",
"7 	c #08323E",
"8 	c #173F4F",
"9 	c #1C4456",
"0 	c #3A5D75",
"a 	c #92AADC",
"b 	c #6E8BB1",
"c 	c #103946",
"d 	c #466885",
"e 	c #718DB3",
"f 	c #94ACDF",
"g 	c #94ACDE",
"h 	c #1D4557",
"i 	c #41637B",
"j 	c #0C3644",
"k 	c #385C74",
"l 	c #8BA5D3",
"m 	c #A6BCF1",
"n 	c #ABC0F6",
"o 	c #A7BCF1",
"p 	c #375B74",
"q 	c #012C37",
"r 	c #496B88",
"s 	c #A1B7EB",
"t 	c #8DA6D4",
"u 	c #51718E",
"v 	c #36596C",
"w 	c #375A6C",
"x 	c #53738F",
"y 	c #8BA4D4",
"z 	c #A0B6EB",
"A 	c #829CC8",
"B 	c #9CB3E8",
"C 	c #40637E",
"D 	c #052F3B",
"E 	c #093341",
"F 	c #0A3341",
"G 	c #32576E",
"H 	c #7D98C3",
"I 	c #284D61",
"J 	c #40637D",
"K 	c #819CC7",
"L 	c #A2B8EE",
"M 	c #3F627D",
"N 	c #7B96C2",
"O 	c #07313E",
"P 	c #7792BB",
"Q 	c #2E5469",
"R 	c #2F5469",
"S 	c #1F4657",
"T 	c #4B6C88",
"U 	c #1A4151",
"V 	c #6381A6",
"W 	c #1A4251",
"X 	c #6785AA",
"Y 	c #AABFF4",
"Z 	c #6180A3",
"` 	c #133B4A",
" .	c #567696",
"..	c #123B4A",
"                                        ",
"                  . .                   ",
"          + @ # $ % & $ # @ *           ",
"      = - ; > , ' ' ' ' , > ; ) !       ",
"    ~ { , ' ' ' ] ^ ^ ] ' ' ' , { /     ",
"( _ ' ' : < [ }         } [ | 1 ' ' 2 3 ",
"4 ' 5 | 6     7 8 9 9 8 7     0 | 5 ' 4 ",
"a ' b !   c d e ; f g ; e d c   = b ' a ",
"h i j   k l m ' ' ' n n ' o l p   j i h ",
"  q   r s ' n t u v w x y n 5 z r   q   ",
"    q A ' B C   D E F D   C B ' A q     ",
"      G H I   J K L : K M   I N G       ",
"    q     q 2 ' ' ' ' ' ' 2 q     q     ",
"          O K ' P Q R P ' A O           ",
"            S T U V V W T S             ",
"                X ' Y X                 ",
"                Z ' ' Z                 ",
"                `  . ...                ",
"                                        ",
"                                        "};
