/* XPM */
static char * wf4_xpm[] = {
"20 20 7 1",
" 	c #002B36",
".	c #022C38",
"+	c #032C39",
"@	c #2C3F64",
"#	c #8669C2",
"$	c #5D5697",
"%	c #032D39",
"                    ",
"                    ",
"                    ",
"                    ",
"                    ",
"                    ",
"                    ",
"                    ",
"                    ",
"                    ",
"                    ",
"                    ",
"                    ",
"                    ",
"      .+    +.      ",
"        @##@        ",
"        .$$.        ",
"         %%         ",
"                    ",
"                    "};
