/* XPM */
static char * wf3_xpm[] = {
"20 20 21 1",
" 	c #002B36",
".	c #032D39",
"+	c #0C3042",
"@	c #293E61",
"#	c #283E60",
"$	c #6E5EA9",
"%	c #8D6CC9",
"&	c #17364E",
"*	c #8A6BC6",
"=	c #7A63B5",
"-	c #63599D",
";	c #062E3C",
">	c #3D4775",
",	c #4B4E84",
"'	c #16354D",
")	c #092F40",
"!	c #022C38",
"~	c #032C39",
"{	c #2C3F64",
"]	c #8669C2",
"^	c #5D5697",
"                    ",
"                    ",
"                    ",
"                    ",
"                    ",
"                    ",
"                    ",
"                    ",
"                    ",
"                    ",
"       .+@@+.       ",
"      #$%%%%$#      ",
"     &*%=--=%*&     ",
"     ;>,'))',>;     ",
"      !~    ~!      ",
"        {]]{        ",
"        !^^!        ",
"         ..         ",
"                    ",
"                    "};
