/* XPM */
static char * wf1_xpm[] = {
"20 20 58 1",
" 	c #002B36",
".	c #092F40",
"+	c #14344B",
"@	c #1D3955",
"#	c #0C3042",
"$	c #3A4672",
"%	c #61589B",
"&	c #7360AE",
"*	c #7762B3",
"=	c #7C64B8",
"-	c #032D39",
";	c #474C80",
">	c #8468BF",
",	c #8A6AC6",
"'	c #8D6CC9",
")	c #012B37",
"!	c #1E3955",
"~	c #7A63B5",
"{	c #8B6BC7",
"]	c #60579A",
"^	c #304168",
"/	c #16354D",
"(	c #062E3C",
"_	c #2C3F64",
":	c #896AC5",
"<	c #7B64B7",
"[	c #484C81",
"}	c #022C38",
"|	c #113348",
"1	c #1C3853",
"2	c #454B7D",
"3	c #223B59",
"4	c #50508A",
"5	c #62589C",
"6	c #7561B0",
"7	c #8A6BC6",
"8	c #032C39",
"9	c #253C5D",
"0	c #082F3F",
"a	c #4D4E86",
"b	c #8066BB",
"c	c #7D65B8",
"d	c #705EAA",
"e	c #6B5CA6",
"f	c #273D5E",
"g	c #0D3143",
"h	c #52518C",
"i	c #8669C2",
"j	c #3F4878",
"k	c #293E61",
"l	c #0F3246",
"m	c #283E60",
"n	c #6E5EA9",
"o	c #17364E",
"p	c #63599D",
"q	c #3D4775",
"r	c #4B4E84",
"s	c #5D5697",
"                    ",
"                    ",
"       .+@@+.       ",
"    #$%&*==*&%$#    ",
"  -;>,'''''''',>;-  ",
")!~'{>]^/((/^]>{'~!)",
"_:'<[} (|11|( }[<':_",
"2'%+ 3456776543 +%'2",
"890 ab'''cc'''ba 098",
"  +d{'efg((gfe'{d+  ",
"   hij -#kk#- jih   ",
"    l mn''''nm l    ",
"     o7'~pp~'7o     ",
"     (qr/../rq(     ",
"      }8    8}      ",
"        _ii_        ",
"        }ss}        ",
"         --         ",
"                    ",
"                    "};
