/* XPM */
static char * wifi3_xpm[] = {
"18 18 12 1",
" 	c #002B36",
".	c #2F5768",
"+	c #62879E",
"@	c #3B6274",
"#	c #234C5B",
"$	c #A3C3E2",
"%	c #42697C",
"&	c #62869D",
"*	c #1A4351",
"=	c #2E5667",
"-	c #41687B",
";	c #224B5A",
"                  ",
"                  ",
"                  ",
"                  ",
"                  ",
"                  ",
"                  ",
"                  ",
"                  ",
"                  ",
"                  ",
"                  ",
"                  ",
" .+@              ",
"#$$$@             ",
"%$$$&             ",
"*$$$=             ",
" *-;              "};
