/* XPM */
static char * wifi2_xpm[] = {
"18 18 31 1",
" 	c #002B36",
".	c #012C37",
"+	c #5D8198",
"@	c #789AB4",
"#	c #52778C",
"$	c #1A4352",
"%	c #0C3642",
"&	c #A2C2E1",
"*	c #A3C3E2",
"=	c #4D7388",
"-	c #345C6D",
";	c #6C90A8",
">	c #406779",
",	c #032D39",
"'	c #6F92AB",
")	c #0D3844",
"!	c #2F5768",
"~	c #62879E",
"{	c #3B6274",
"]	c #0A3541",
"^	c #365D6F",
"/	c #234C5B",
"(	c #4D7387",
"_	c #42697C",
":	c #62869D",
"<	c #486E82",
"[	c #234B5A",
"}	c #1A4351",
"|	c #2E5667",
"1	c #41687B",
"2	c #224B5A",
"                  ",
"                  ",
"                  ",
"                  ",
"                  ",
"                  ",
"                  ",
"                  ",
"                  ",
" .+@#$            ",
" %&***=           ",
"  -;***>          ",
"    ,'**)         ",
" !~{ ]**^         ",
"/***{ **(         ",
"_***: <*[         ",
"}***|  ,          ",
" }12              "};
