/* XPM */
static char * wifi1_xpm[] = {
"18 18 53 1",
" 	c #002B36",
".	c #012C37",
"+	c #1A4351",
"@	c #A3C3E2",
"#	c #98B9D7",
"$	c #587D92",
"%	c #18414F",
"&	c #3C6375",
"*	c #7194AD",
"=	c #113B48",
"-	c #1D4654",
";	c #53788E",
">	c #94B5D2",
",	c #476D81",
"'	c #92B3D0",
")	c #5D8198",
"!	c #789AB4",
"~	c #52778C",
"{	c #1A4352",
"]	c #375E70",
"^	c #5B8096",
"/	c #0C3642",
"(	c #A2C2E1",
"_	c #4D7388",
":	c #547A8F",
"<	c #0E3845",
"[	c #345C6D",
"}	c #6C90A8",
"|	c #406779",
"1	c #0B3541",
"2	c #345B6D",
"3	c #032D39",
"4	c #6F92AB",
"5	c #0D3844",
"6	c #7FA1BC",
"7	c #6D90A9",
"8	c #2F5768",
"9	c #62879E",
"0	c #3B6274",
"a	c #0A3541",
"b	c #365D6F",
"c	c #8BADC9",
"d	c #234C5B",
"e	c #4D7387",
"f	c #32596B",
"g	c #42697C",
"h	c #62869D",
"i	c #486E82",
"j	c #234B5A",
"k	c #0D3743",
"l	c #2E5667",
"m	c #41687B",
"n	c #224B5A",
"                  ",
"                  ",
"                  ",
"                  ",
"   .              ",
"  +@@#$%          ",
"  &@@@@@*         ",
"   =-;@@@>        ",
"       ,@@'       ",
" .)!~{  ]@@^      ",
" /(@@@_  :@@<     ",
"  [}@@@| 1@@2     ",
"    34@@5 6@7     ",
" 890 a@@b ~@c     ",
"d@@@0 @@e f@!     ",
"g@@@h i@j  k      ",
"+@@@l  3          ",
" +mn              "};
