/* XPM */
static char * wifi_xpm[] = {
"18 18 69 1",
" 	c #002B36",
".	c #345B6D",
"+	c #41677A",
"@	c #345C6D",
"#	c #234B5A",
"$	c #06303C",
"%	c #05303B",
"&	c #A3C3E2",
"*	c #789AB4",
"=	c #18414F",
"-	c #8DAECA",
";	c #92B4D0",
">	c #143E4C",
",	c #A2C2E1",
"'	c #3F6578",
")	c #012C37",
"!	c #365D6F",
"~	c #9ABBD9",
"{	c #4F758A",
"]	c #1A4351",
"^	c #98B9D7",
"/	c #587D92",
"(	c #89ABC6",
"_	c #3C6375",
":	c #7194AD",
"<	c #113B48",
"[	c #1D4654",
"}	c #53788E",
"|	c #94B5D2",
"1	c #93B4D1",
"2	c #476D81",
"3	c #92B3D0",
"4	c #355C6E",
"5	c #184250",
"6	c #5D8198",
"7	c #52778C",
"8	c #1A4352",
"9	c #375E70",
"0	c #5B8096",
"a	c #799CB5",
"b	c #0C3642",
"c	c #4D7388",
"d	c #547A8F",
"e	c #0E3845",
"f	c #06313D",
"g	c #6C90A8",
"h	c #406779",
"i	c #0B3541",
"j	c #143D4B",
"k	c #234C5B",
"l	c #032D39",
"m	c #6F92AB",
"n	c #0D3844",
"o	c #7FA1BC",
"p	c #6D90A9",
"q	c #2F5768",
"r	c #62879E",
"s	c #3B6274",
"t	c #0A3541",
"u	c #8BADC9",
"v	c #41687B",
"w	c #4D7387",
"x	c #32596B",
"y	c #42697C",
"z	c #62869D",
"A	c #486E82",
"B	c #0D3743",
"C	c #2E5667",
"D	c #224B5A",
"   .+@#$          ",
"  %&&&&&*=        ",
"   -&&&&&&;$      ",
"     $>@;&&,'     ",
"   )     !~&&{    ",
"  ]&&^/=   (&&'   ",
"  _&&&&&:   (&,$  ",
"   <[}&&&|   ~&1) ",
"       2&&3  4&&5 ",
" )6*78  9&&0  ;&a ",
" b,&&&c  d&&e @&&f",
"  @g&&&h i&&. j&&k",
"    lm&&n o&p $&&4",
" qrs t&&! 7&u  &&v",
"k&&&s &&w x&*  -&4",
"y&&&z A&#  B    f ",
"]&&&C  l          ",
" ]vD              "};
