/* XPM */
static char * wf2_xpm[] = {
"20 20 40 1",
" 	c #002B36",
".	c #062E3C",
"+	c #113348",
"@	c #1C3853",
"#	c #022C38",
"$	c #223B59",
"%	c #50508A",
"&	c #62589C",
"*	c #7561B0",
"=	c #8A6BC6",
"-	c #4D4E86",
";	c #8066BB",
">	c #8D6CC9",
",	c #7D65B8",
"'	c #082F3F",
")	c #14344B",
"!	c #705EAA",
"~	c #8B6BC7",
"{	c #6B5CA6",
"]	c #273D5E",
"^	c #0D3143",
"/	c #52518C",
"(	c #8669C2",
"_	c #3F4878",
":	c #032D39",
"<	c #0C3042",
"[	c #293E61",
"}	c #0F3246",
"|	c #283E60",
"1	c #6E5EA9",
"2	c #17364E",
"3	c #7A63B5",
"4	c #63599D",
"5	c #3D4775",
"6	c #4B4E84",
"7	c #16354D",
"8	c #092F40",
"9	c #032C39",
"0	c #2C3F64",
"a	c #5D5697",
"                    ",
"                    ",
"                    ",
"                    ",
"                    ",
"                    ",
"       .+@@+. #     ",
"     $%&*==*&%$     ",
"    -;>>>,,>>>;- '  ",
"  )!~>{]^..^]{>~!)  ",
"   /(_ :<[[<: _(/   ",
"    } |1>>>>1| }    ",
"     2=>3443>=2     ",
"     .56788765.     ",
"      #9    9#      ",
"        0((0        ",
"        #aa#        ",
"         ::         ",
"                    ",
"                    "};
