/* XPM */
static char * wf4_xpm[] = {
"20 20 22 1",
" 	c #002B36",
".	c #0F3846",
"+	c #1E4657",
"@	c #08323E",
"#	c #4B6D89",
"$	c #6D8AAE",
"%	c #6E8BAF",
"&	c #4B6C88",
"*	c #012C37",
"=	c #365A72",
"-	c #6A87AA",
";	c #284E62",
">	c #143C4C",
",	c #274D61",
"'	c #6E8BB0",
")	c #3A5E76",
"!	c #042F3B",
"~	c #05303C",
"{	c #06303C",
"]	c #7995BB",
"^	c #7894BA",
"/	c #123B4A",
"                    ",
"                    ",
"                    ",
"                    ",
"                    ",
"                    ",
"                    ",
"                    ",
"                    ",
"                    ",
"                    ",
"        .++.        ",
"      @#$%%$&@      ",
"     *=-;>>,')*     ",
"      !~    {!      ",
"         ]]         ",
"        {^^{        ",
"         //         ",
"                    ",
"                    "};
