/* XPM */
static char * wf3_xpm[] = {
"20 20 35 1",
" 	c #002B36",
".	c #1B4254",
"+	c #294F63",
"@	c #7A96BC",
"#	c #90A9D5",
"$	c #8FA8D4",
"%	c #052F3B",
"&	c #557594",
"*	c #8DA6D1",
"=	c #4A6C88",
"-	c #1A4253",
";	c #51728F",
">	c #6E8BB0",
",	c #123B4A",
"'	c #0F3846",
")	c #1E4657",
"!	c #547493",
"~	c #0C3543",
"{	c #08323E",
"]	c #4B6D89",
"^	c #6D8AAE",
"/	c #6E8BAF",
"(	c #4B6C88",
"_	c #012C37",
":	c #365A72",
"<	c #6A87AA",
"[	c #284E62",
"}	c #143C4C",
"|	c #274D61",
"1	c #3A5E76",
"2	c #042F3B",
"3	c #05303C",
"4	c #06303C",
"5	c #7995BB",
"6	c #7894BA",
"                    ",
"                    ",
"                    ",
"                    ",
"                    ",
"                    ",
"                    ",
"                    ",
"         ..         ",
"      +@#$$#@+      ",
"    %&*=-  -=*&%    ",
"    ;>, '))' ,>!    ",
"    ~ {]^//^({ ,    ",
"     _:<[}}|>1_     ",
"      23    42      ",
"         55         ",
"        4664        ",
"         ,,         ",
"                    ",
"                    "};
