/* XPM */
static char * wf2_xpm[] = {
"20 20 55 1",
" 	c #002B36",
".	c #052F3B",
"+	c #08323E",
"@	c #093340",
"#	c #1D4456",
"$	c #446681",
"%	c #6E8BB0",
"&	c #7E99C1",
"*	c #839DC6",
"=	c #163E4E",
"-	c #597898",
";	c #819CC4",
">	c #6280A1",
",	c #486A85",
"'	c #32566D",
")	c #1A4253",
"!	c #274D60",
"~	c #839EC7",
"{	c #718EB3",
"]	c #204759",
"^	c #1B4254",
"/	c #274D61",
"(	c #567695",
"_	c #466883",
":	c #07313E",
"<	c #294F63",
"[	c #7A96BC",
"}	c #90A9D5",
"|	c #8FA8D4",
"1	c #43657F",
"2	c #4E6F8C",
"3	c #557594",
"4	c #8DA6D1",
"5	c #4A6C88",
"6	c #51728F",
"7	c #123B4A",
"8	c #0F3846",
"9	c #1E4657",
"0	c #547493",
"a	c #0C3543",
"b	c #4B6D89",
"c	c #6D8AAE",
"d	c #6E8BAF",
"e	c #4B6C88",
"f	c #012C37",
"g	c #365A72",
"h	c #6A87AA",
"i	c #284E62",
"j	c #143C4C",
"k	c #3A5E76",
"l	c #042F3B",
"m	c #05303C",
"n	c #06303C",
"o	c #7995BB",
"p	c #7894BA",
"                    ",
"                    ",
"                    ",
"                    ",
"                    ",
"       .+@@+.       ",
"     #$%&**&%$#     ",
"   =-;>,'))',>;-=   ",
". !~{]   ^^   ]{~/  ",
" .(_: <[}||}[< :12. ",
"    .345)  )543.    ",
"    6%7 8998 7%0    ",
"    a +bcddce+ 7    ",
"     fghijj/%kf     ",
"      lm    nl      ",
"         oo         ",
"        nppn        ",
"         77         ",
"                    ",
"                    "};
