/* XPM */
static char * wf1_xpm[] = {
"20 20 76 1",
" 	c #002B36",
".	c #0C3644",
"+	c #194051",
"@	c #234A5D",
"#	c #0F3847",
"$	c #43657F",
"%	c #6F8CB0",
"&	c #849EC7",
"*	c #7F9AC2",
"=	c #7490B6",
"-	c #042F3B",
";	c #4E6F8C",
">	c #91A9D5",
",	c #41647E",
"'	c #143C4C",
")	c #08323F",
"!	c #08323E",
"~	c #012C37",
"{	c #1E4557",
"]	c #7C98BF",
"^	c #21485A",
"/	c #052F3B",
"(	c #093340",
"_	c #2E5369",
":	c #859FC9",
"<	c #4A6B87",
"[	c #1D4456",
"}	c #446681",
"|	c #6E8BB0",
"1	c #7E99C1",
"2	c #839DC6",
"3	c #2E5368",
"4	c #4F708D",
"5	c #355970",
"6	c #163E4E",
"7	c #597898",
"8	c #819CC4",
"9	c #6280A1",
"0	c #486A85",
"a	c #32566D",
"b	c #1A4253",
"c	c #34586F",
"d	c #567695",
"e	c #274D60",
"f	c #839EC7",
"g	c #718EB3",
"h	c #204759",
"i	c #1B4254",
"j	c #274D61",
"k	c #466883",
"l	c #07313E",
"m	c #294F63",
"n	c #7A96BC",
"o	c #90A9D5",
"p	c #8FA8D4",
"q	c #557594",
"r	c #8DA6D1",
"s	c #4A6C88",
"t	c #51728F",
"u	c #123B4A",
"v	c #0F3846",
"w	c #1E4657",
"x	c #547493",
"y	c #0C3543",
"z	c #4B6D89",
"A	c #6D8AAE",
"B	c #6E8BAF",
"C	c #4B6C88",
"D	c #365A72",
"E	c #6A87AA",
"F	c #284E62",
"G	c #3A5E76",
"H	c #05303C",
"I	c #06303C",
"J	c #7995BB",
"K	c #7894BA",
"                    ",
"                    ",
"       .+@@+.       ",
"    #$%&*==*&%$#    ",
"  -;>=,')!!)',=>;-  ",
"~{*]^  /!((!/  ^]*{~",
"_:<  [}|1221|}[  <:3",
"45 67890abba09876 cd",
"/ efgh   ii   hgfj )",
" /dkl mnopponm l$;/ ",
"    /qrsb  bsrq/    ",
"    t|u vwwv u|x    ",
"    y !zABBAC! u    ",
"     ~DEF''j|G~     ",
"      -H    I-      ",
"         JJ         ",
"        IKKI        ",
"         uu         ",
"                    ",
"                    "};
