/* XPM */
static char * b1_xpm[] = {
"16 16 26 1",
" 	c #002B36",
".	c #D26D6E",
"+	c #F27777",
"@	c #363C45",
"#	c #5D484F",
"$	c #1F353E",
"%	c #E47373",
"&	c #E27273",
"*	c #3C3E46",
"=	c #58474E",
"-	c #BE6769",
";	c #664B52",
">	c #7B5257",
",	c #EC7575",
"'	c #795157",
")	c #704E54",
"!	c #CD6B6D",
"~	c #F17777",
"{	c #072D38",
"]	c #6D4D53",
"^	c #734F55",
"/	c #3B3D46",
"(	c #403F47",
"_	c #444048",
":	c #042C37",
"<	c #D06C6E",
"     .++++.     ",
"   @#++++++#@   ",
"  $+%&&&&&&%+$  ",
"  *+        +*  ",
"  *+        +*  ",
"  *+   ==   +*  ",
"  *+   --   +*  ",
"  *+  ;>>;  +*  ",
"  *+  ,'',  +*  ",
"  *+ )+!!+) +*  ",
"  *+ ~+>>+~ +*  ",
"  *+{)]^^]){+*  ",
"  *+        +*  ",
"  *+        +*  ",
"  /+(______(+/  ",
"  :<++++++++<:  "};
