/* XPM */
static char * b3_xpm[] = {
"16 16 23 1",
" 	c #002B36",
".	c #BF9067",
"+	c #F4AC75",
"@	c #344643",
"#	c #6B6452",
"$	c #F1AA74",
"%	c #042D37",
"&	c #D39A6C",
"*	c #CE986B",
"=	c #16373C",
"-	c #0F333A",
";	c #15363B",
">	c #18383C",
",	c #11343A",
"'	c #91785C",
")	c #AE8763",
"!	c #0E333A",
"~	c #CC976B",
"{	c #B58B65",
"]	c #D89D6E",
"^	c #4E544A",
"/	c #324543",
"(	c #BD8F67",
"     .++++.     ",
"   @#$++++$#@   ",
"  %+&******&+%  ",
"  =+-      -+=  ",
"  ;+>      >+;  ",
"  ;+>      >+;  ",
"  ;+>      >+;  ",
"  ;+>      >+;  ",
"  ;+>      >+;  ",
"  ;+>      >+;  ",
"  ;+>      >+;  ",
"  ;+,'))))',+;  ",
"  ;+!~++++~!+;  ",
"  ;+-{]]]]{-+;  ",
"  ;+^@////@^+;  ",
"   (++++++++(   "};
