/* XPM */
static char * b4_xpm[] = {
"16 16 27 1",
" 	c #002B36",
".	c #A8AE7F",
"+	c #D6D293",
"@	c #2D4E4A",
"#	c #5E745F",
"$	c #D3D092",
"%	c #032E37",
"&	c #B9BB86",
"*	c #B4B884",
"=	c #133A3E",
"-	c #0D353C",
";	c #12393E",
">	c #153B3F",
",	c #11383D",
"'	c #5B725D",
")	c #6D8065",
"!	c #0D353B",
"~	c #B3B684",
"{	c #BDBE88",
"]	c #0F373D",
"^	c #808F6D",
"/	c #99A278",
"(	c #9FA77B",
"_	c #BEBF88",
":	c #456154",
"<	c #2C4D49",
"[	c #A6AD7E",
"     .++++.     ",
"   @#$++++$#@   ",
"  %+&******&+%  ",
"  =+-      -+=  ",
"  ;+>      >+;  ",
"  ;+>      >+;  ",
"  ;+>      >+;  ",
"  ;+,'))))',+;  ",
"  ;+!~++++~!+;  ",
"  ;+!{++++{!+;  ",
"  ;+>      >+;  ",
"  ;+]^////^]+;  ",
"  ;+!~++++~!+;  ",
"  ;+-(____(-+;  ",
"  ;+:@<<<<@:+;  ",
"   [++++++++[   "};
