/* XPM */
static char * b2_xpm[] = {
"16 16 32 1",
" 	c #002B36",
".	c #499566",
"+	c #66BF79",
"@	c #144843",
"#	c #3A7F5C",
"$	c #61B776",
"%	c #09383C",
"&	c #61B876",
"*	c #5AAE71",
"=	c #56A76E",
"-	c #55A76E",
";	c #0E403F",
">	c #0F4140",
",	c #1F584A",
"'	c #25614E",
")	c #58AB70",
"!	c #59AC71",
"~	c #0D3E3E",
"{	c #134642",
"]	c #0D3E3F",
"^	c #317256",
"/	c #3B805D",
"(	c #56A86F",
"_	c #5BAF72",
":	c #0C3C3E",
"<	c #0E3F3F",
"[	c #448E63",
"}	c #52A26C",
"|	c #57AA6F",
"1	c #1C5449",
"2	c #032F38",
"3	c #418A61",
"     .++++.     ",
"   @#$++++$#@   ",
"  %&*=----=*&%  ",
"  ;+>,'''',>+;  ",
"  ;+;)++++);+;  ",
"  ;+;!++++!;+;  ",
"  ;+~>{{{{>~+;  ",
"  ;+]^////^]+;  ",
"  ;+;(++++(;+;  ",
"  ;+;_++++_;+;  ",
"  ;+:      :+;  ",
"  ;+<[}}}}[<+;  ",
"  ;+;=++++=;+;  ",
"  ;+<.||||.<+;  ",
"  <+1<]]]]<1+<  ",
"  23++++++++32  "};
