/* XPM */
static char * on_full_xpm[] = {
"16 16 34 1",
" 	c #002B36",
".	c #012D36",
"+	c #378738",
"@	c #4AA639",
"#	c #053336",
"$	c #1E5D37",
"%	c #469F39",
"&	c #073736",
"*	c #47A239",
"=	c #449B39",
"-	c #439B39",
";	c #0C4037",
">	c #033036",
",	c #022E36",
"'	c #022F36",
")	c #49A539",
"!	c #459E39",
"~	c #3B8D38",
"{	c #47A039",
"]	c #0D4137",
"^	c #114737",
"/	c #1B5737",
"(	c #327D38",
"_	c #063536",
":	c #256837",
"<	c #185237",
"[	c #429939",
"}	c #104637",
"|	c #246737",
"1	c #154F37",
"2	c #449D39",
"3	c #429839",
"4	c #0C3F36",
"5	c #338038",
"    .+@@@@+.    ",
"   #$%@@@@%$#   ",
"  &*%=----=%*&  ",
"  ;@>,'''',>@;  ",
"  ;)!!!!!!!!);  ",
"  ;)@@@@@@@@);  ",
"  ;)@@@@~=@@);  ",
"  ;)@@@{])@@);  ",
"  ;)@@@^/@@@);  ",
"  ;)@@( _:@@);  ",
"  ;)@@+<'[@@);  ",
"  ;)@@@}|@@@);  ",
"  ;)@@{1@@@@);  ",
"  ;)@@23@@@@);  ",
"  4)@@@@@@@@)4  ",
"  >5@@@@@@@@5>  "};
