/* XPM */
static char * b5_xpm[] = {
"16 16 37 1",
" 	c #002B36",
".	c #022D39",
"+	c #709EC5",
"@	c #96C4F5",
"#	c #0A3543",
"$	c #3D6984",
"%	c #8DBBEA",
"&	c #0E3948",
"*	c #91BFEE",
"=	c #8EBCEB",
"-	c #89B7E5",
";	c #88B6E4",
">	c #194556",
",	c #06323E",
"'	c #042F3B",
")	c #05303C",
"!	c #95C3F4",
"~	c #8DBAE9",
"{	c #94C2F3",
"]	c #77A5CE",
"^	c #8FBDEC",
"/	c #1B4758",
"(	c #234E62",
"_	c #36627B",
":	c #6592B6",
"<	c #0C3846",
"[	c #4A7794",
"}	c #709DC4",
"|	c #305C73",
"1	c #86B4E1",
"2	c #204C5F",
"3	c #497593",
"4	c #2C576D",
"5	c #8BB9E7",
"6	c #86B3E0",
"7	c #184455",
"8	c #6895BA",
"    .+@@@@+.    ",
"   #$%@@@@%$#   ",
"  &*=-;;;;-=*&  ",
"  >@,'))))',@>  ",
"  >!~~~~~~~~!>  ",
"  >{@@@@@@@@{>  ",
"  >{@@@@]-@@{>  ",
"  >{@@@^/!@@{>  ",
"  >{@@@(_@@@{>  ",
"  >{@@: <[@@{>  ",
"  >{@@}|)1@@{>  ",
"  >{@@@23@@@{>  ",
"  >{@@^4@@@@{>  ",
"  >{@@56@@@@{>  ",
"  7{@@@@@@@@{7  ",
"  ,8@@@@@@@@8,  "};
