/* XPM */
static char * v_xpm[] = {
"20 20 131 2",
"  	c None",
". 	c #002B36",
"+ 	c #36565E",
"@ 	c #8C9A9D",
"# 	c #708489",
"$ 	c #2D4F58",
"% 	c #32535B",
"& 	c #08323C",
"* 	c #788B8F",
"= 	c #C7C9CA",
"- 	c #D1D1D1",
"; 	c #C6C8C9",
"> 	c #46626A",
", 	c #052F3A",
"' 	c #8D9B9F",
") 	c #BEC2C3",
"! 	c #244751",
"~ 	c #012C37",
"{ 	c #052F39",
"] 	c #B7BDBE",
"^ 	c #D2D2D2",
"/ 	c #94A0A4",
"( 	c #4C686F",
"_ 	c #CFD0D0",
": 	c #5A7379",
"< 	c #234751",
"[ 	c #1D424C",
"} 	c #244750",
"| 	c #BFC3C4",
"1 	c #919EA2",
"2 	c #08313C",
"3 	c #0E3641",
"4 	c #546E75",
"5 	c #7E9094",
"6 	c #7C8E93",
"7 	c #909DA1",
"8 	c #ADB5B7",
"9 	c #526D73",
"0 	c #36575F",
"a 	c #D0D0D0",
"b 	c #597278",
"c 	c #B2B9BA",
"d 	c #183E48",
"e 	c #587177",
"f 	c #2F5059",
"g 	c #778A8F",
"h 	c #B1B8BA",
"i 	c #ACB4B6",
"j 	c #6F8389",
"k 	c #1B414A",
"l 	c #375860",
"m 	c #CFCFCF",
"n 	c #5B7379",
"o 	c #385860",
"p 	c #4F6A71",
"q 	c #35555D",
"r 	c #CCCDCD",
"s 	c #849498",
"t 	c #183F48",
"u 	c #B6BBBD",
"v 	c #829397",
"w 	c #C9CBCB",
"x 	c #99A4A7",
"y 	c #143B45",
"z 	c #1A3F49",
"A 	c #193F49",
"B 	c #022C37",
"C 	c #62797F",
"D 	c #2C4E57",
"E 	c #839397",
"F 	c #B6BCBE",
"G 	c #163D47",
"H 	c #95A2A5",
"I 	c #B5BBBC",
"J 	c #89989C",
"K 	c #577076",
"L 	c #1C414B",
"M 	c #BABFC0",
"N 	c #6F8489",
"O 	c #C4C6C7",
"P 	c #294B54",
"Q 	c #7D8E92",
"R 	c #88979B",
"S 	c #567076",
"T 	c #234750",
"U 	c #BDC1C2",
"V 	c #697F84",
"W 	c #506B72",
"X 	c #C2C5C6",
"Y 	c #264A53",
"Z 	c #7F8F94",
"` 	c #133A44",
" .	c #385861",
"..	c #5B747A",
"+.	c #6B8086",
"@.	c #C8CACB",
"#.	c #1F434D",
"$.	c #93A0A3",
"%.	c #B1B7B9",
"&.	c #133A45",
"*.	c #9CA7AA",
"=.	c #AEB5B7",
"-.	c #AAB2B4",
";.	c #ABB3B5",
">.	c #284B54",
",.	c #34555D",
"'.	c #4E6970",
").	c #72868B",
"!.	c #1F444E",
"~.	c #BCC0C2",
"{.	c #74878C",
"].	c #556F76",
"^.	c #7F9095",
"/.	c #7D8F94",
"(.	c #526C73",
"_.	c #A8B1B3",
":.	c #0D3540",
"<.	c #36565F",
"[.	c #B6BCBD",
"}.	c #4C676F",
"|.	c #5A7278",
"1.	c #103842",
"2.	c #0B343E",
"3.	c #385760",
"4.	c #7A8C91",
"5.	c #062F3A",
"6.	c #C8CACA",
"7.	c #45626A",
"8.	c #07303B",
"9.	c #37575F",
"0.	c #1E434C",
". . . . . . . . . . . . . . . . . . . . ",
". . . . . . . . . . . . . . . . . . . . ",
". . . . . . . . . . . . . . . . . . . . ",
". . . . . . . . + @ # . . . . . $ % . . ",
". . . . . . & * = - ; > . . . , ' ) ! . ",
". ~ { , , + ] ^ / ( _ : . . < [ } | 1 2 ",
"3 4 5 6 7 - 8 9 . 0 a b . . c | d e - f ",
"g - h i i j k . . l m n o p q r s t u v ",
"w x y z A B . . . l a b C - D E F G H I ",
"m J . . . . . . . l a K L M N ( O P Q r ",
"m R . . . . . . . l a S T U V W X Y Z w ",
"w x ` d A B . . .  .a ..+.@.#.$.%.&.*.=.",
"g - %.-.;.j k . . l m b >.,.'.- ).!.~.{.",
"3 ].^./.1 - 8 (.. 0 a b . . c _.:.V ^ T ",
". ~ , , , <.[.- / }.m |.. . 1.2.3.m 4.5.",
". . . . . . & * 6.- ; 7.. . . 8.*._.d . ",
". . . . . . . . 9.@ # . . . . . [ 0.. . ",
". . . . . . . . . . . . . . . . . . . . ",
". . . . . . . . . . . . . . . . . . . . ",
". . . . . . . . . . . . . . . . . . . . "};
