/* XPM */
static char * volume_min_xpm[] = {
"20 20 81 1",
" 	c #002B36",
".	c #36565E",
"+	c #8C9A9D",
"@	c #708489",
"#	c #08323C",
"$	c #788B8F",
"%	c #C7C9CA",
"&	c #D1D1D1",
"*	c #C6C8C9",
"=	c #46626A",
"-	c #012C37",
";	c #052F39",
">	c #052F3A",
",	c #B7BDBE",
"'	c #D2D2D2",
")	c #94A0A4",
"!	c #4C686F",
"~	c #CFD0D0",
"{	c #5A7379",
"]	c #0E3641",
"^	c #546E75",
"/	c #7E9094",
"(	c #7C8E93",
"_	c #909DA1",
":	c #ADB5B7",
"<	c #526D73",
"[	c #36575F",
"}	c #D0D0D0",
"|	c #597278",
"1	c #778A8F",
"2	c #B1B8BA",
"3	c #ACB4B6",
"4	c #6F8389",
"5	c #1B414A",
"6	c #375860",
"7	c #CFCFCF",
"8	c #5B7379",
"9	c #385860",
"0	c #4F6A71",
"a	c #C9CBCB",
"b	c #99A4A7",
"c	c #143B45",
"d	c #1A3F49",
"e	c #193F49",
"f	c #022C37",
"g	c #62797F",
"h	c #2C4E57",
"i	c #89989C",
"j	c #577076",
"k	c #1C414B",
"l	c #BABFC0",
"m	c #6F8489",
"n	c #88979B",
"o	c #567076",
"p	c #234750",
"q	c #BDC1C2",
"r	c #697F84",
"s	c #133A44",
"t	c #183E48",
"u	c #385861",
"v	c #5B747A",
"w	c #6B8086",
"x	c #C8CACB",
"y	c #1F434D",
"z	c #B1B7B9",
"A	c #AAB2B4",
"B	c #ABB3B5",
"C	c #284B54",
"D	c #34555D",
"E	c #556F76",
"F	c #7F9095",
"G	c #7D8F94",
"H	c #919EA2",
"I	c #526C73",
"J	c #36565F",
"K	c #B6BCBD",
"L	c #4C676F",
"M	c #5A7278",
"N	c #C8CACA",
"O	c #45626A",
"P	c #37575F",
"                    ",
"                    ",
"                    ",
"        .+@         ",
"      #$%&*=        ",
" -;>>.,')!~{        ",
"]^/(_&:< [}|        ",
"1&23345  67890      ",
"abcdef   6}|g&h     ",
"7i       6}jklm     ",
"7n       6}opqr     ",
"abstef   u}vwxy     ",
"1&zAB45  67|CD      ",
"]EFGH&:I [}|        ",
" ->>>JK&)L7M        ",
"      #$N&*O        ",
"        P+@         ",
"                    ",
"                    ",
"                    "};
