/* XPM */
static char * v2_xpm[] = {
"20 20 109 2",
"  	c #002B36",
". 	c #424251",
"+ 	c #AB627A",
"@ 	c #89596E",
"# 	c #0A2F3B",
"$ 	c #925C72",
"% 	c #F47997",
"& 	c #FF7D9B",
"* 	c #F27996",
"= 	c #554759",
"- 	c #022C37",
"; 	c #062D39",
"> 	c #062E39",
", 	c #072D39",
"' 	c #404352",
") 	c #DF7490",
"! 	c #FF7E9C",
"~ 	c #B4667E",
"{ 	c #5C4B5D",
"] 	c #FC7E9C",
"^ 	c #6E4F62",
"/ 	c #082E39",
"( 	c #052D38",
"_ 	c #032C37",
": 	c #092E3A",
"< 	c #012C37",
"[ 	c #11323E",
"} 	c #654F60",
"| 	c #956176",
"1 	c #936075",
"2 	c #AF647C",
"3 	c #D3718B",
"4 	c #634E60",
"5 	c #3C4754",
"6 	c #FD7D9B",
"7 	c #6C4F62",
"8 	c #253946",
"9 	c #AF657D",
"0 	c #0E303C",
"a 	c #684D60",
"b 	c #BD6982",
"c 	c #434252",
"d 	c #915B71",
"e 	c #FF7D9C",
"f 	c #D8728D",
"g 	c #D0718C",
"h 	c #D0728C",
"i 	c #87596D",
"j 	c #213644",
"k 	c #3E4855",
"l 	c #FD7C9B",
"m 	c #735265",
"n 	c #955E73",
"o 	c #A8627A",
"p 	c #775367",
"q 	c #F67B98",
"r 	c #EC7894",
"s 	c #F67A97",
"t 	c #BA6881",
"u 	c #183441",
"v 	c #1E3744",
"w 	c #022D38",
"x 	c #FD7E9C",
"y 	c #5F4B5D",
"z 	c #F97C9B",
"A 	c #FE7D9B",
"B 	c #945D73",
"C 	c #FD7C9A",
"D 	c #A76379",
"E 	c #6D4F62",
"F 	c #795367",
"G 	c #F87B98",
"H 	c #965E73",
"I 	c #0C2F3B",
"J 	c #A76178",
"K 	c #6D4E61",
"L 	c #F97B99",
"M 	c #965D73",
"N 	c #173340",
"O 	c #1D3643",
"P 	c #1E3643",
"Q 	c #3F4856",
"R 	c #F97C9A",
"S 	c #945C72",
"T 	c #D7728D",
"U 	c #CE708A",
"V 	c #CE708B",
"W 	c #87586D",
"X 	c #775266",
"Y 	c #F77A98",
"Z 	c #655062",
"` 	c #956377",
" .	c #936377",
"..	c #AF677E",
"+.	c #634D5F",
"@.	c #253947",
"#.	c #895B6F",
"$.	c #684E60",
"%.	c #434352",
"&.	c #072E39",
"*.	c #404452",
"=.	c #DF738E",
"-.	c #5C4A5C",
";.	c #6E4E62",
">.	c #0A303B",
",.	c #F37B98",
"'.	c #F17A97",
").	c #544758",
"!.	c #89596D",
"                                        ",
"                                        ",
"                                        ",
"                . + @                   ",
"            # $ % & * =                 ",
"  - ; > , ' ) ! ~ { ] ^   / (     _ : < ",
"[ } | 1 2 & 3 4   5 6 7 8 9 @ 0 < a b c ",
"d e f g h i j     k l m n & & o p q & r ",
"s t u v v w       k x 7 y z A & q & ! B ",
"C D               k x E   F G A A & H I ",
"C J               k A K   F L A A & M I ",
"s t N O P w       Q 6 7 y R A & s & ! S ",
"d ! T U V W j     k l m n & ! o X Y ! r ",
"[ Z `  ...& 3 +.  5 x 7 @.9 #.0 < $.b %.",
"  - > > &.*.=.& ~ -.C ;.  / (     _ : < ",
"            >.$ ,.& '.).                ",
"                . + !.                  ",
"                                        ",
"                                        ",
"                                        "};
