/* XPM */
static char * volume_mid_xpm[] = {
"20 20 104 2",
"  	c #002B36",
". 	c #36565E",
"+ 	c #8C9A9D",
"@ 	c #708489",
"# 	c #08323C",
"$ 	c #788B8F",
"% 	c #C7C9CA",
"& 	c #D1D1D1",
"* 	c #C6C8C9",
"= 	c #46626A",
"- 	c #012C37",
"; 	c #052F39",
"> 	c #052F3A",
", 	c #B7BDBE",
"' 	c #D2D2D2",
") 	c #94A0A4",
"! 	c #4C686F",
"~ 	c #CFD0D0",
"{ 	c #5A7379",
"] 	c #234751",
"^ 	c #1D424C",
"/ 	c #0E3641",
"( 	c #546E75",
"_ 	c #7E9094",
": 	c #7C8E93",
"< 	c #909DA1",
"[ 	c #ADB5B7",
"} 	c #526D73",
"| 	c #36575F",
"1 	c #D0D0D0",
"2 	c #597278",
"3 	c #B2B9BA",
"4 	c #BFC3C4",
"5 	c #183E48",
"6 	c #778A8F",
"7 	c #B1B8BA",
"8 	c #ACB4B6",
"9 	c #6F8389",
"0 	c #1B414A",
"a 	c #375860",
"b 	c #CFCFCF",
"c 	c #5B7379",
"d 	c #385860",
"e 	c #4F6A71",
"f 	c #35555D",
"g 	c #CCCDCD",
"h 	c #849498",
"i 	c #C9CBCB",
"j 	c #99A4A7",
"k 	c #143B45",
"l 	c #1A3F49",
"m 	c #193F49",
"n 	c #022C37",
"o 	c #62797F",
"p 	c #2C4E57",
"q 	c #839397",
"r 	c #B6BCBE",
"s 	c #163D47",
"t 	c #89989C",
"u 	c #577076",
"v 	c #1C414B",
"w 	c #BABFC0",
"x 	c #6F8489",
"y 	c #C4C6C7",
"z 	c #294B54",
"A 	c #88979B",
"B 	c #567076",
"C 	c #234750",
"D 	c #BDC1C2",
"E 	c #697F84",
"F 	c #506B72",
"G 	c #C2C5C6",
"H 	c #264A53",
"I 	c #133A44",
"J 	c #385861",
"K 	c #5B747A",
"L 	c #6B8086",
"M 	c #C8CACB",
"N 	c #1F434D",
"O 	c #93A0A3",
"P 	c #B1B7B9",
"Q 	c #133A45",
"R 	c #AAB2B4",
"S 	c #ABB3B5",
"T 	c #284B54",
"U 	c #34555D",
"V 	c #4E6970",
"W 	c #72868B",
"X 	c #556F76",
"Y 	c #7F9095",
"Z 	c #7D8F94",
"` 	c #919EA2",
" .	c #526C73",
"..	c #A8B1B3",
"+.	c #0D3540",
"@.	c #36565F",
"#.	c #B6BCBD",
"$.	c #4C676F",
"%.	c #5A7278",
"&.	c #103842",
"*.	c #0B343E",
"=.	c #C8CACA",
"-.	c #45626A",
";.	c #37575F",
"                                        ",
"                                        ",
"                                        ",
"                . + @                   ",
"            # $ % & * =                 ",
"  - ; > > . , ' ) ! ~ {     ] ^         ",
"/ ( _ : < & [ }   | 1 2     3 4 5       ",
"6 & 7 8 8 9 0     a b c d e f g h       ",
"i j k l m n       a 1 2 o & p q r s     ",
"b t               a 1 u v w x ! y z     ",
"b A               a 1 B C D E F G H     ",
"i j I 5 m n       J 1 K L M N O P Q     ",
"6 & P R S 9 0     a b 2 T U V & W       ",
"/ X Y Z ` & [  .  | 1 2     3 ..+.      ",
"  - > > > @.#.& ) $.b %.    &.*.        ",
"            # $ =.& * -.                ",
"                ;.+ @                   ",
"                                        ",
"                                        ",
"                                        "};
